<?xml version="1.0" encoding="UTF-8" standalone="no"?>
<svg width="3293px" height="143px" viewBox="0 0 3293 143" version="1.1" xmlns="http://www.w3.org/2000/svg" xmlns:xlink="http://www.w3.org/1999/xlink">
    <!-- Generator: Sketch 40.3 (33839) - http://www.bohemiancoding.com/sketch -->
    <title>illustration</title>
    <desc>Created with Sketch.</desc>
    <defs></defs>
    <g id="Page-1" stroke="none" stroke-width="1" fill="none" fill-rule="evenodd" stroke-linecap="round" stroke-linejoin="round">
        <g id="illustration" transform="translate(0.000000, 1.000000)">
            <path d="M2043.99145,35.6666667 L2278,35.6666667" id="Line" stroke="#000000" stroke-width="2"></path>
            <path d="M2043.99145,20.6666667 L3265.39408,15.7839651" id="Line" stroke="#000000" stroke-width="2"></path>
            <path d="M2042.99567,5.66666667 L3265.39408,0.783965055" id="Line" stroke="#000000" stroke-width="2"></path>
            <polygon id="Rectangle-2" stroke="#000000" stroke-width="2" points="1108 96 1233 51 1358 96 1233 141"></polygon>
            <polygon id="Rectangle-2" stroke="#000000" stroke-width="2" points="1378 96 1503 51 1628 96 1503 141"></polygon>
            <polygon id="Rectangle-2" stroke="#000000" stroke-width="2" points="1648 96 1773 51 1898 96 1773 141"></polygon>
            <polygon id="Rectangle-2" stroke="#000000" stroke-width="2" points="1918 96 2043 51 2168 96 2043 141"></polygon>
            <polygon id="Rectangle-2" stroke="#000000" stroke-width="2" points="1648 81 1773 36 1898 81 1773 126"></polygon>
            <polygon id="Rectangle-2" stroke="#000000" stroke-width="2" points="1918 81 2043 36 2168 81 2043 126"></polygon>
            <polygon id="Rectangle-2" stroke="#000000" stroke-width="2" points="1378 81 1503 36 1628 81 1503 126"></polygon>
            <polygon id="Rectangle-2" stroke="#000000" stroke-width="2" points="1648 66 1773 21 1898 66 1773 111"></polygon>
            <path d="M2046,25 L2171,70" id="Rectangle-2" stroke="#F0F0F0" stroke-width="4"></path>
            <path d="M2046,10 L2171,55" id="Rectangle-2" stroke="#F0F0F0" stroke-width="4"></path>
            <path d="M1645,83 L1770,128" id="Rectangle-2" stroke="#F0F0F0" stroke-width="4"></path>
            <path d="M1645,68 L1770,113" id="Rectangle-2" stroke="#F0F0F0" stroke-width="4"></path>
            <path d="M1776.42451,83 L1901.42451,128" id="Rectangle-2" stroke="#F0F0F0" stroke-width="4" transform="translate(1838.924510, 105.500000) scale(-1, 1) translate(-1838.924510, -105.500000) "></path>
            <path d="M1378,84 L1503,129" id="Rectangle-2" stroke="#F0F0F0" stroke-width="4"></path>
            <path d="M1507.42451,82 L1632.42451,127" id="Rectangle-2" stroke="#F0F0F0" stroke-width="3" transform="translate(1569.924510, 104.500000) scale(-1, 1) translate(-1569.924510, -104.500000) "></path>
            <path d="M1776.42451,68 L1901.42451,113" id="Rectangle-2" stroke="#F0F0F0" stroke-width="4" transform="translate(1838.924510, 90.500000) scale(-1, 1) translate(-1838.924510, -90.500000) "></path>
            <polygon id="Rectangle-2" stroke="#000000" stroke-width="2" points="1918 66 2043 21 2168 66 2043 111"></polygon>
            <polygon id="Rectangle-2" stroke="#000000" stroke-width="2" points="1918 51 2043 6 2168 51 2043 96"></polygon>
            <path d="M1378,81.5 L1378,95.5" id="Line" stroke="#000000" stroke-width="2"></path>
            <path d="M1648,81.5 L1648,95.5" id="Line" stroke="#000000" stroke-width="2"></path>
            <path d="M1917,81.5 L1917,95.5" id="Line" stroke="#000000" stroke-width="2"></path>
            <path d="M1648,66.5 L1648,80.5" id="Line" stroke="#000000" stroke-width="2"></path>
            <path d="M1917,66.5 L1917,80.5" id="Line" stroke="#000000" stroke-width="2"></path>
            <path d="M1917,51.5 L1917,65.5" id="Line" stroke="#000000" stroke-width="2"></path>
            <path d="M1358,96 L1378,96" id="Line" stroke="#000000" stroke-width="2"></path>
            <path d="M0.945349136,96 L1108,96" id="Line" stroke="#000000" stroke-width="2"></path>
            <path d="M1628,96 L1648,96" id="Line" stroke="#000000" stroke-width="2"></path>
            <path d="M1898,96 L1918,96" id="Line" stroke="#000000" stroke-width="2"></path>
            <path d="M2068.86387,113 L3291.39408,108.117298" id="Line" stroke="#F0F0F0" stroke-width="3"></path>
            <path d="M2068.86387,128 L3291.39408,123.117298" id="Line" stroke="#F0F0F0" stroke-width="3"></path>
            <path d="M2042.86387,110.666667 L3265.39408,105.783965" id="Line" stroke="#000000" stroke-width="2"></path>
            <path d="M2042.86387,125.666667 L3265.39408,120.783965" id="Line" stroke="#000000" stroke-width="2"></path>
            <path d="M2042.86387,140.666667 L3265.39408,135.783965" id="Line" stroke="#000000" stroke-width="2"></path>
            <path d="M1628,81 L1648,81" id="Line" stroke="#000000" stroke-width="2"></path>
            <path d="M1898,81 L1918,81" id="Line" stroke="#000000" stroke-width="2"></path>
            <path d="M2168,81 L3265.39408,76.1172984" id="Line" stroke="#000000" stroke-width="2"></path>
            <path d="M1898,66 L1918,66" id="Line" stroke="#000000" stroke-width="2"></path>
            <path d="M2168,66 L3265.39408,61.1172984" id="Line" stroke="#000000" stroke-width="2"></path>
            <path d="M2168,51 L3265.39408,46.1172984" id="Line" stroke="#000000" stroke-width="2"></path>
            <path d="M1628,81.5 L1628,95.5" id="Line" stroke="#000000" stroke-width="2"></path>
            <path d="M1897,81.5 L1897,95.5" id="Line" stroke="#000000" stroke-width="2"></path>
            <path d="M2167,81.5 L2167,95.5" id="Line" stroke="#000000" stroke-width="2"></path>
            <path d="M1897,66.5 L1897,80.5" id="Line" stroke="#000000" stroke-width="2"></path>
            <path d="M2167,66.5 L2167,80.5" id="Line" stroke="#000000" stroke-width="2"></path>
            <path d="M2167,51.5 L2167,65.5" id="Line" stroke="#000000" stroke-width="2"></path>
            <path d="M1503,36.5 L1503,50.5" id="Line" stroke="#000000" stroke-width="2"></path>
            <path d="M1773,36.5 L1773,50.5" id="Line" stroke="#000000" stroke-width="2"></path>
            <path d="M2043,36.5 L2043,50.5" id="Line" stroke="#000000" stroke-width="2"></path>
            <path d="M1773,21.5 L1773,35.5" id="Line" stroke="#000000" stroke-width="2"></path>
            <path d="M2043,21.5 L2043,35.5" id="Line" stroke="#000000" stroke-width="2"></path>
            <path d="M2043,6.5 L2043,20.5" id="Line" stroke="#000000" stroke-width="2"></path>
            <path d="M1503,126.5 L1503,140.5" id="Line" stroke="#000000" stroke-width="2"></path>
            <path d="M1773,126.5 L1773,140.5" id="Line" stroke="#000000" stroke-width="2"></path>
            <path d="M2043,126.5 L2043,140.5" id="Line" stroke="#000000" stroke-width="2"></path>
            <path d="M1773,111.5 L1773,125.5" id="Line" stroke="#000000" stroke-width="2"></path>
            <path d="M2043,111.5 L2043,125.5" id="Line" stroke="#000000" stroke-width="2"></path>
            <path d="M2043,96.5 L2043,110.5" id="Line" stroke="#000000" stroke-width="2"></path>
            <path d="M2063.86387,97.5 L3286.39408,92.6172984" id="Line" stroke="#F0F0F0" stroke-width="3"></path>
            <path d="M2042.86387,95.6666667 L3265.39408,90.7839651" id="Line" stroke="#000000" stroke-width="2"></path>
        </g>
    </g>
</svg>